<svg width="66" height="43" viewBox="0 0 66 43" fill="none" xmlns="http://www.w3.org/2000/svg">
<path d="M64.9998 8.16699C64.9998 3.84399 62.1998 1.5 58.5998 1.5H7.39986C0.945864 1.5 0.999839 8.16699 0.999839 8.16699V34.834C0.999839 34.834 0.842864 41.501 7.39986 41.501H32.1659" stroke="#020B50" stroke-width="2" stroke-linecap="round"/>
<path d="M19.4 35.5C19.4 35.5 29.8 30.3 29.8 22.5V13.4L19.4 9.5L9 13.4V22.5C9 30.3 19.4 35.5 19.4 35.5Z" fill="#19B0DC" stroke="#020B50" stroke-width="3" stroke-linecap="round" stroke-linejoin="round"/>
<path d="M63 10.5H37C35.8954 10.5 35 11.3954 35 12.5V38.5C35 39.6046 35.8954 40.5 37 40.5H63C64.1046 40.5 65 39.6046 65 38.5V12.5C65 11.3954 64.1046 10.5 63 10.5Z" fill="url(#paint0_linear_3_1964)"/>
<path d="M60.486 25.724C60.4896 27.6582 59.9455 29.5539 58.9165 31.1918C57.8876 32.8297 56.416 34.1428 54.6719 34.9791C52.9278 35.8154 50.9825 36.1408 49.0612 35.9176C47.1398 35.6944 45.321 34.9318 43.815 33.718C43.7072 33.6306 43.619 33.5215 43.5561 33.3978C43.4931 33.2742 43.4568 33.1387 43.4496 33.0001C43.4423 32.8615 43.4642 32.723 43.5139 32.5934C43.5636 32.4638 43.64 32.3462 43.738 32.248L44.203 31.783C44.3744 31.6104 44.6032 31.5067 44.8459 31.4916C45.0887 31.4765 45.3285 31.551 45.52 31.701C46.6608 32.6054 48.0374 33.1631 49.486 33.3078C50.9346 33.4525 52.3942 33.1781 53.6914 32.5172C54.9886 31.8563 56.0686 30.8368 56.8031 29.5799C57.5376 28.323 57.8957 26.8815 57.8347 25.427C57.7737 23.9725 57.2962 22.5661 56.4591 21.375C55.6219 20.184 54.4603 19.2585 53.1124 18.7085C51.7645 18.1586 50.2869 18.0074 48.8555 18.2728C47.4241 18.5383 46.0991 19.2093 45.038 20.206L47.138 22.306C47.2303 22.3984 47.2931 22.5161 47.3186 22.6442C47.344 22.7723 47.3309 22.9051 47.2809 23.0258C47.231 23.1465 47.1464 23.2497 47.0378 23.3223C46.9293 23.395 46.8016 23.4338 46.671 23.434H40.671C40.4957 23.434 40.3276 23.3643 40.2036 23.2404C40.0797 23.1164 40.01 22.9483 40.01 22.773V16.773C40.0103 16.6435 40.0487 16.517 40.1203 16.4091C40.1918 16.3012 40.2935 16.2167 40.4127 16.1661C40.5319 16.1155 40.6633 16.1011 40.7907 16.1245C40.918 16.1479 41.0357 16.2083 41.129 16.298L43.168 18.338C44.6172 16.9533 46.4409 16.0243 48.413 15.666C50.3851 15.3077 52.419 15.5358 54.2627 16.3222C56.1063 17.1086 57.6788 18.4186 58.7852 20.09C59.8916 21.7613 60.4833 23.7206 60.487 25.725L60.486 25.724ZM53.014 28.978L53.42 28.456C53.5 28.3532 53.5589 28.2357 53.5934 28.1102C53.6279 27.9847 53.6374 27.8536 53.6212 27.7244C53.605 27.5952 53.5636 27.4705 53.4992 27.3574C53.4348 27.2442 53.3488 27.1449 53.246 27.065L51.565 25.758V21.448C51.565 21.1851 51.4606 20.9331 51.2748 20.7472C51.0889 20.5614 50.8368 20.457 50.574 20.457H49.913C49.6502 20.457 49.3981 20.5614 49.2123 20.7472C49.0264 20.9331 48.922 21.1851 48.922 21.448V27.048L51.622 29.148C51.7248 29.2279 51.8422 29.2868 51.9678 29.3213C52.0933 29.3559 52.2244 29.3653 52.3536 29.3492C52.4827 29.333 52.6075 29.2915 52.7206 29.2272C52.8338 29.1628 52.9331 29.0768 53.013 28.974L53.014 28.978Z" fill="white"/>
<defs>
<linearGradient id="paint0_linear_3_1964" x1="35.45" y1="24.81" x2="64.64" y2="24.39" gradientUnits="userSpaceOnUse">
<stop stop-color="#19B0DC"/>
<stop offset="1" stop-color="#020B50"/>
</linearGradient>
</defs>
</svg>
