<svg xmlns="http://www.w3.org/2000/svg" xmlns:xlink="http://www.w3.org/1999/xlink" width="42" height="42" viewBox="0 0 42 42">
  <defs>
    <linearGradient id="linear-gradient" x1="0.5" x2="0.5" y2="1" gradientUnits="objectBoundingBox">
      <stop offset="0" stop-color="#18a8d6"/>
      <stop offset="1" stop-color="#04175a"/>
    </linearGradient>
  </defs>
  <g id="Group_15" data-name="Group 15" transform="translate(-1121 -262)">
    <g id="Ellipse_2" data-name="Ellipse 2" transform="translate(1121 262)" fill="#fff" stroke="#2072a0" stroke-width="1">
      <circle cx="21" cy="21" r="21" stroke="none"/>
      <circle cx="21" cy="21" r="20.5" fill="none"/>
    </g>
    <path id="deceased_24dp_5F6368_FILL0_wght400_GRAD0_opsz24" d="M207.679-855.537a7.74,7.74,0,0,0-.781-1.631,8.169,8.169,0,0,0-1.121-1.393,8.866,8.866,0,0,0-1.393-1.138,7.272,7.272,0,0,0-1.631-.8,4.993,4.993,0,0,0,.476,1.835,5.54,5.54,0,0,0,1.087,1.529,5.849,5.849,0,0,0,1.529,1.1A4.8,4.8,0,0,0,207.679-855.537Zm3.669,0a5.518,5.518,0,0,0,1.835-.51,5.539,5.539,0,0,0,1.529-1.087,5.54,5.54,0,0,0,1.087-1.529,5.518,5.518,0,0,0,.51-1.835,8.158,8.158,0,0,0-1.648.781,7.867,7.867,0,0,0-1.41,1.121,7.864,7.864,0,0,0-1.121,1.41A8.159,8.159,0,0,0,211.348-855.537Zm-1.835-12.232a5.235,5.235,0,0,0,3.839-1.6,5.235,5.235,0,0,0,1.6-3.839v-1.631l-2.378,2-3.058-3.7-3.058,3.7-2.378-2v1.631a5.235,5.235,0,0,0,1.6,3.839A5.235,5.235,0,0,0,209.514-867.768Zm-1.359,14.95a7.864,7.864,0,0,1-5.776-2.378A7.864,7.864,0,0,1,200-860.973v-2.718a10.117,10.117,0,0,1,4.553.985,10.608,10.608,0,0,1,3.6,2.752v-5.2a7.883,7.883,0,0,1-4.859-2.735,7.912,7.912,0,0,1-1.937-5.317v-4.621a1.258,1.258,0,0,1,.781-1.24,1.28,1.28,0,0,1,1.461.221l2.514,2.174,2.344-2.854a1.323,1.323,0,0,1,1.053-.476,1.323,1.323,0,0,1,1.053.476l2.344,2.854,2.514-2.174a1.28,1.28,0,0,1,1.461-.221,1.258,1.258,0,0,1,.781,1.24v4.621a7.912,7.912,0,0,1-1.937,5.317,7.883,7.883,0,0,1-4.859,2.735v5.2a10.608,10.608,0,0,1,3.6-2.752,10.117,10.117,0,0,1,4.553-.985v2.718a7.864,7.864,0,0,1-2.378,5.776,7.864,7.864,0,0,1-5.776,2.378ZM209.514-872.151ZM213.829-858.017ZM205.232-858.017Z" transform="translate(932.487 1149.409)" fill="url(#linear-gradient)"/>
  </g>
</svg>
