<svg width="12" height="14" viewBox="0 0 12 14" fill="none" xmlns="http://www.w3.org/2000/svg">
<path d="M0.857143 12.4444C0.857143 13.3 1.62857 14 2.57143 14H9.42857C10.3714 14 11.1429 13.3 11.1429 12.4444V3.11111H0.857143V12.4444ZM11.1429 0.777778H9L8.39143 0.225556C8.23714 0.0855555 8.01429 0 7.79143 0H4.20857C3.98571 0 3.76286 0.0855555 3.60857 0.225556L3 0.777778H0.857143C0.385714 0.777778 0 1.12778 0 1.55556C0 1.98333 0.385714 2.33333 0.857143 2.33333H11.1429C11.6143 2.33333 12 1.98333 12 1.55556C12 1.12778 11.6143 0.777778 11.1429 0.777778Z" fill="black"/>
</svg>
