<svg xmlns="http://www.w3.org/2000/svg" xmlns:xlink="http://www.w3.org/1999/xlink" width="66.002" height="42" viewBox="0 0 66.002 42"><defs><style>.a{fill:#020b50;}.b{fill:none;stroke:#020b50;stroke-linecap:round;stroke-width:2px;}.c{fill:url(#a);}.d{fill:#fff;}</style><linearGradient id="a" x1="0.015" y1="0.477" x2="0.988" y2="0.463" gradientUnits="objectBoundingBox"><stop offset="0" stop-color="#19b0dc"/><stop offset="1" stop-color="#020b50"/></linearGradient></defs><g transform="translate(-386.998 -143)"><path class="a" d="M17.875,5.964a.7.7,0,0,0,.7-.7V2.946a.7.7,0,0,0-.7-.7H.7a.7.7,0,0,0-.7.7v2.6a.7.7,0,0,0,.7.7H5.646A4.187,4.187,0,0,1,9.184,7.821H.7a.7.7,0,0,0-.7.7v2.321a.7.7,0,0,0,.7.7H9.91a4.011,4.011,0,0,1-4.339,3.4H.7a.7.7,0,0,0-.7.7v3.077a.7.7,0,0,0,.224.512L9.8,28.065a.7.7,0,0,0,.472.185h4.792a.7.7,0,0,0,.472-1.208L6.783,18.959a7.951,7.951,0,0,0,8.027-7.423h3.065a.7.7,0,0,0,.7-.7V8.518a.7.7,0,0,0-.7-.7H14.469a7.949,7.949,0,0,0-.827-1.857Z" transform="translate(396 149.75)"/><path class="b" d="M1890,1252.667c0-4.323-2.8-6.667-6.4-6.667h-51.2c-6.454,0-6.4,6.667-6.4,6.667v26.667s-.157,6.667,6.4,6.667h24.766" transform="translate(-1438 -1102)"/><g transform="translate(-52 -256)"><rect class="c" width="30" height="30" rx="2" transform="translate(474 409)"/><path class="d" d="M21.048,10.786A10.243,10.243,0,0,1,4.377,18.78.991.991,0,0,1,4.3,17.31l.465-.465a.993.993,0,0,1,1.317-.082A7.6,7.6,0,1,0,5.6,5.268l2.1,2.1a.661.661,0,0,1-.467,1.128h-6a.661.661,0,0,1-.661-.661v-6A.661.661,0,0,1,1.691,1.36L3.73,3.4a10.243,10.243,0,0,1,17.319,7.387ZM13.576,14.04l.406-.522a.991.991,0,0,0-.174-1.391L12.127,10.82V6.51a.991.991,0,0,0-.991-.991h-.661a.991.991,0,0,0-.991.991v5.6l2.7,2.1a.991.991,0,0,0,1.391-.174Z" transform="translate(478.438 413.438)"/></g></g></svg>