<svg xmlns="http://www.w3.org/2000/svg" xmlns:xlink="http://www.w3.org/1999/xlink" width="64.001" height="40" viewBox="0 0 64.001 40"><defs><style>.a{fill:red;}.b{fill:#dbd9d9;}.c{fill:#fff;}.d{fill:#b5b1b1;}.e,.f,.g,.h{fill:none;stroke-linecap:round;}.e{stroke:#b5b1b1;}.f{stroke:#2072A0;stroke-width:2px;}.g,.h{stroke:#707070;}.h{stroke-dasharray:2 3;}.i{clip-path:url(#a);}.j{fill:url(#b);}.k{clip-path:url(#c);}.l{fill:url(#d);}</style><clipPath id="a"><path class="a" d="M-1049.765-852.413l-5.171-5.171a2,2,0,0,1,1.414-3.415h3.172v-13h-16.825a2,2,0,0,1-2-2,2,2,0,0,1,2-2H-1049a2.017,2.017,0,0,1,.327.027,2.012,2.012,0,0,1,.321-.026,2,2,0,0,1,2,2v15h3.172a2,2,0,0,1,1.414,3.415l-5.171,5.171a1.994,1.994,0,0,1-1.414.586A2,2,0,0,1-1049.765-852.413Z" transform="translate(1705.176 1483.828)"/></clipPath><linearGradient id="b" x1="0.5" x2="0.5" y2="1" gradientUnits="objectBoundingBox"><stop offset="0" stop-color="#19b0dc"/><stop offset="1" stop-color="#020b50"/></linearGradient><clipPath id="c"><path class="a" d="M19.411,25.587,14.24,20.416A2,2,0,0,1,15.654,17h3.172V4H2A2,2,0,0,1,2,0H20.176A2.012,2.012,0,0,1,20.5.027,2,2,0,0,1,22.825,2V17H26a2,2,0,0,1,1.415,3.415l-5.172,5.171a2,2,0,0,1-2.828,0Z" transform="translate(28 26.173) rotate(180)"/></clipPath><linearGradient id="d" y1="1" y2="0" xlink:href="#b"/></defs><g transform="translate(-500 -604)"><circle class="b" cx="15" cy="15" r="15" transform="translate(500.001 604)"/><rect class="c" width="42.369" height="24" rx="4" transform="translate(511.001 612.438)"/><path class="d" d="M25.48,53.049a4.768,4.768,0,0,0-.082-6.6,4.525,4.525,0,0,0-6.457,0,4.768,4.768,0,0,0-.082,6.6,7.183,7.183,0,0,0-3.69,6.3,1.125,1.125,0,1,0,2.25,0,4.751,4.751,0,1,1,9.5,0,1.125,1.125,0,1,0,2.25,0A7.183,7.183,0,0,0,25.48,53.049ZM19.828,49.8a2.345,2.345,0,1,1,2.345,2.4A2.371,2.371,0,0,1,19.828,49.8Z" transform="translate(499.831 571.339)"/><g transform="translate(-104.999 279.938)"><line class="e" x2="12.266" transform="translate(637.5 338.5)"/><line class="e" x2="12.266" transform="translate(637.5 342.5)"/><line class="e" x2="12.266" transform="translate(637.5 350.5)"/><line class="e" x2="12.266" transform="translate(637.5 346.5)"/></g><path class="f" d="M1868.369,1251.777v-1.754c0-2.609-1.85-4.023-4.237-4.023h-33.9a3.981,3.981,0,0,0-4.237,4.023" transform="translate(-1314.999 -634)"/><path class="f" d="M1826,1248.524v1.778c0,2.609,1.85,4.023,4.237,4.023h33.9a3.981,3.981,0,0,0,4.237-4.023" transform="translate(-1314.999 -618.325)"/><g transform="translate(1154.001 -8) rotate(90)"><line class="g" y2="12" transform="translate(648 604)"/><line class="h" y2="6" transform="translate(648 596)"/></g><g class="i" transform="translate(-99.999 -1.827)"><rect class="j" width="57" height="31" transform="translate(608.175 602.827)"/></g><g class="k" transform="translate(500.001 617.827)"><rect class="l" width="57" height="31" transform="translate(-1.175 -1.827)"/></g></g></svg>