<?xml version="1.0" encoding="utf-8"?>
<!-- Generator: Adobe Illustrator 23.0.1, SVG Export Plug-In . SVG Version: 6.00 Build 0)  -->
<svg version="1.1" id="Layer_1" xmlns="http://www.w3.org/2000/svg" xmlns:xlink="http://www.w3.org/1999/xlink" x="0px" y="0px"
	 viewBox="0 0 66 42" style="enable-background:new 0 0 66 42;" xml:space="preserve">
<style type="text/css">
	.st0{fill:none;stroke:#020B50;stroke-width:2;stroke-linecap:round;}
	.st1{fill:url(#SVGID_1_);}
	.st2{fill:#FFFFFF;}
	.st3{clip-path:url(#SVGID_3_);}
	.st4{fill:url(#SVGID_4_);}
	.st5{clip-path:url(#SVGID_6_);}
	.st6{fill:url(#SVGID_7_);}
	.st7{fill:url(#SVGID_8_);}
	.st8{fill:url(#SVGID_9_);}
</style>
<g transform="translate(-386.998 -143)">
	<path class="st0" d="M452,150.7c0-4.3-2.8-6.7-6.4-6.7h-51.2c-6.5,0-6.4,6.7-6.4,6.7v26.7c0,0-0.2,6.7,6.4,6.7h24.8"/>
	<g transform="translate(-52 -256)">
		
			<linearGradient id="SVGID_1_" gradientUnits="userSpaceOnUse" x1="-1052.2906" y1="582.3237" x2="-1051.3176" y2="582.3378" gradientTransform="matrix(30 0 0 -30 32043.1816 17893.9219)">
			<stop  offset="0" style="stop-color:#19B0DC"/>
			<stop  offset="1" style="stop-color:#020B50"/>
		</linearGradient>
		<path class="st1" d="M476,409h26c1.1,0,2,0.9,2,2v26c0,1.1-0.9,2-2,2h-26c-1.1,0-2-0.9-2-2v-26C474,409.9,474.9,409,476,409z"/>
		<path class="st2" d="M499.5,424.2c0,5.7-4.6,10.3-10.2,10.3c-2.3,0-4.6-0.8-6.4-2.3c-0.4-0.3-0.5-1-0.1-1.4c0,0,0-0.1,0.1-0.1
			l0.5-0.5c0.4-0.4,0.9-0.4,1.3-0.1c3.3,2.6,8.1,2.1,10.7-1.2c2.6-3.3,2.1-8.1-1.2-10.7c-3-2.3-7.2-2.2-9.9,0.4l2.1,2.1
			c0.3,0.3,0.3,0.7,0,0.9c-0.1,0.1-0.3,0.2-0.5,0.2h-6c-0.4,0-0.7-0.3-0.7-0.7l0,0v-6c0-0.4,0.3-0.7,0.7-0.7c0.2,0,0.3,0.1,0.5,0.2
			l2,2c4.1-3.9,10.6-3.8,14.5,0.3C498.5,419.1,499.5,421.6,499.5,424.2L499.5,424.2z M492,427.5l0.4-0.5c0.3-0.4,0.3-1.1-0.2-1.4
			l0,0l-1.7-1.3V420c0-0.5-0.4-1-1-1l0,0h-0.7c-0.5,0-1,0.4-1,1l0,0v5.6l2.7,2.1C491.1,428,491.7,427.9,492,427.5L492,427.5
			L492,427.5z"/>
	</g>
</g>
<g>
	<g>
		<g>
			<g>
				<defs>
					<path id="SVGID_2_" d="M-173.7,28.1l-3.4-3.4c-0.5-0.5-0.5-1.3,0-1.8c0.2-0.2,0.6-0.4,0.9-0.4h2.1V14h-11
						c-0.7,0-1.3-0.6-1.3-1.3s0.6-1.3,1.3-1.3h11.8c0.1,0,0.1,0,0.2,0s0.1,0,0.2,0c0.7,0,1.3,0.6,1.3,1.3v9.8h2.1
						c0.7,0,1.3,0.6,1.3,1.3c0,0.3-0.1,0.7-0.4,0.9l-3.4,3.4c-0.2,0.2-0.6,0.4-0.9,0.4C-173.2,28.4-173.5,28.3-173.7,28.1z"/>
				</defs>
				<clipPath id="SVGID_3_">
					<use xlink:href="#SVGID_2_"  style="overflow:visible;"/>
				</clipPath>
				<g transform="translate(-99.999 -1.827)" class="st3">
					
						<linearGradient id="SVGID_4_" gradientUnits="userSpaceOnUse" x1="-2107.8999" y1="185.6401" x2="-2107.8999" y2="184.9885" gradientTransform="matrix(57 0 0 -31 120264.3438 5769.7158)">
						<stop  offset="0" style="stop-color:#19B0DC"/>
						<stop  offset="1" style="stop-color:#020B50"/>
					</linearGradient>
					<rect x="95.5" y="14.9" class="st4" width="37.1" height="20.2"/>
				</g>
			</g>
		</g>
	</g>
	<g>
		<g>
			<g>
				<defs>
					<path id="SVGID_5_" d="M1009.5,1251l3.4,3.4c0.5,0.5,0.5,1.3,0,1.8c-0.2,0.2-0.6,0.4-0.9,0.4h-2.1v8.5h11
						c0.7,0,1.3,0.6,1.3,1.3c0,0.7-0.6,1.3-1.3,1.3H1009c-0.1,0-0.1,0-0.2,0c-0.7,0.1-1.4-0.4-1.5-1.1c0-0.1,0-0.1,0-0.2v-9.8h-2.1
						c-0.7,0-1.3-0.6-1.3-1.3c0-0.3,0.1-0.7,0.4-0.9l3.4-3.4C1008.2,1250.5,1009,1250.5,1009.5,1251L1009.5,1251z"/>
				</defs>
				<clipPath id="SVGID_6_">
					<use xlink:href="#SVGID_5_"  style="overflow:visible;"/>
				</clipPath>
				<g transform="translate(500.001 617.827)" class="st5">
					
						<linearGradient id="SVGID_7_" gradientUnits="userSpaceOnUse" x1="-3907.6025" y1="-434.2057" x2="-3907.6025" y2="-433.5541" gradientTransform="matrix(57 0 0 -31 222255 -14044.2129)">
						<stop  offset="0" style="stop-color:#19B0DC"/>
						<stop  offset="1" style="stop-color:#020B50"/>
					</linearGradient>
					<rect x="-496.9" y="-604" class="st6" width="37.1" height="20.2"/>
				</g>
			</g>
		</g>
	</g>
</g>
<linearGradient id="SVGID_8_" gradientUnits="userSpaceOnUse" x1="-1605.0894" y1="10.3909" x2="-1605.0894" y2="11.0685" gradientTransform="matrix(57 0 0 31 91512.1719 -313)">
	<stop  offset="0" style="stop-color:#19B0DC"/>
	<stop  offset="1" style="stop-color:#020B50"/>
</linearGradient>
<path class="st7" d="M30.2,22.6h-2.1V12.5c0-0.7-0.6-1.4-1.4-1.4c-0.1,0-0.1,0-0.2,0s-0.1,0-0.2,0H13.9c-0.7,0-1.4,0.6-1.4,1.4
	s0.6,1.4,1.4,1.4h11.4v8.8h-2.1c-0.4,0-0.7,0.1-1,0.4c-0.5,0.5-0.5,1.4,0,1.9l3.5,3.5c0.3,0.3,0.6,0.4,1,0.4s0.7-0.1,1-0.4l3.5-3.5
	c0.3-0.3,0.4-0.6,0.4-1C31.6,23.2,30.9,22.6,30.2,22.6z"/>
<linearGradient id="SVGID_9_" gradientUnits="userSpaceOnUse" x1="-1630.5948" y1="4.9568" x2="-1630.5948" y2="5.6345" gradientTransform="matrix(-57 0 0 -31 -92929.2813 188.2832)">
	<stop  offset="0" style="stop-color:#19B0DC"/>
	<stop  offset="1" style="stop-color:#020B50"/>
</linearGradient>
<path class="st8" d="M6.6,21h2.1v10.2c0,0.7,0.6,1.4,1.4,1.4c0.1,0,0.1,0,0.2,0c0.1,0,0.1,0,0.2,0h12.3c0.7,0,1.4-0.6,1.4-1.4
	s-0.6-1.4-1.4-1.4H11.4V21h2.1c0.4,0,0.7-0.1,1-0.4c0.5-0.5,0.5-1.4,0-1.9L11,15.2c-0.3-0.3-0.6-0.4-1-0.4s-0.7,0.1-1,0.4l-3.5,3.5
	c-0.3,0.3-0.4,0.6-0.4,1C5.2,20.4,5.8,21,6.6,21z"/>
</svg>
